<?xml version="1.0" encoding="UTF-8" standalone="no"?>
<svg width="20px" height="20px" viewBox="0 0 20 20" version="1.1" xmlns="http://www.w3.org/2000/svg" xmlns:xlink="http://www.w3.org/1999/xlink" xmlns:sketch="http://www.bohemiancoding.com/sketch/ns">
    <!-- Generator: Sketch 3.3.1 (12002) - http://www.bohemiancoding.com/sketch -->
    <title>Instagram icon</title>
    <desc>Created with Sketch.</desc>
    <defs></defs>
    <g id="Page-1" stroke="none" stroke-width="1" fill="none" fill-rule="evenodd" sketch:type="MSPage">
        <g id="Desktop-HD" sketch:type="MSArtboardGroup" transform="translate(-93.000000, -963.000000)" fill="#4A4A4A">
            <g id="Sidebar" sketch:type="MSLayerGroup">
                <path d="M110.692999,971.460769 L108.951776,971.460769 C109.078622,971.953247 109.153525,972.467764 109.153525,972.999563 C109.153525,976.398754 106.39856,979.153622 103.000049,979.153622 C99.6015369,979.153622 96.846475,976.398754 96.846475,972.999563 C96.846475,972.467764 96.9216695,971.953199 97.0485148,971.460769 L95.3072928,971.460769 L95.3072928,979.922849 C95.3072928,980.34722 95.6517604,980.691397 96.0771994,980.691397 L109.922849,980.691397 C110.348385,980.691397 110.69295,980.34722 110.69295,979.922849 L110.69295,971.460769 L110.692999,971.460769 Z M110.692999,966.076568 C110.692999,965.651809 110.348385,965.307341 109.922898,965.307341 L107.615799,965.307341 C107.190748,965.307341 106.846572,965.651809 106.846572,966.076568 L106.846572,968.384589 C106.846572,968.809057 107.190748,969.153816 107.615799,969.153816 L109.922898,969.153816 C110.348434,969.153816 110.692999,968.809057 110.692999,968.384589 L110.692999,966.076568 L110.692999,966.076568 Z M103.000049,969.153816 C100.875621,969.153816 99.1537677,970.875329 99.1537677,972.999612 C99.1537677,975.1237 100.875669,976.846232 103.000049,976.846232 C105.124282,976.846232 106.846524,975.1237 106.846524,972.999612 C106.846524,970.875281 105.124282,969.153816 103.000049,969.153816 L103.000049,969.153816 Z M110.692999,983 L95.3072928,983 C94.0332089,983 93,981.966548 93,980.691397 L93,965.307341 C93,964.032869 94.0332089,963 95.3072928,963 L110.69295,963 C111.967228,963 113.000049,964.032869 113.000049,965.307341 L113.000049,980.691397 C113.000097,981.966548 111.967277,983 110.692999,983 L110.692999,983 Z" id="Instagram-icon" sketch:type="MSShapeGroup"></path>
            </g>
        </g>
    </g>
</svg>