<?xml version="1.0" encoding="UTF-8" standalone="no"?>
<svg width="20px" height="20px" viewBox="0 0 20 20" version="1.1" xmlns="http://www.w3.org/2000/svg" xmlns:xlink="http://www.w3.org/1999/xlink" xmlns:sketch="http://www.bohemiancoding.com/sketch/ns">
    <!-- Generator: Sketch 3.3.1 (12002) - http://www.bohemiancoding.com/sketch -->
    <title>Dribbble icon</title>
    <desc>Created with Sketch.</desc>
    <defs></defs>
    <g id="Page-1" stroke="none" stroke-width="1" fill="none" fill-rule="evenodd" sketch:type="MSPage">
        <g id="Desktop-HD" sketch:type="MSArtboardGroup" transform="translate(-143.000000, -963.000000)" fill="#4A4A4A">
            <g id="Sidebar" sketch:type="MSLayerGroup">
                <path d="M153,963 C147.477136,963 143,967.477136 143,973 C143,978.52267 147.477136,983 153,983 C158.522864,983 163,978.52267 163,973 C163,967.477136 158.522864,963 153,963 L153,963 Z M161.237282,972.534175 C159.09165,972.182184 157.118155,972.16335 155.318641,972.473301 C155.11534,972.003738 154.904466,971.536214 154.67966,971.073204 C156.603932,970.240049 158.15068,969.107961 159.302864,967.67199 C160.427427,969.000291 161.133495,970.687087 161.237282,972.534175 L161.237282,972.534175 Z M158.035437,966.466117 C157.031893,967.760534 155.646019,968.784854 153.880825,969.532379 C153.033981,967.981553 152.066068,966.46932 150.973592,965.001117 C151.623155,964.836165 152.299757,964.739126 152.999951,964.739126 C154.896068,964.739126 156.639757,965.387913 158.035437,966.466117 L158.035437,966.466117 Z M149.272718,965.637767 C150.382379,967.089709 151.36534,968.585777 152.22,970.121942 C150.195146,970.718058 147.777476,971.024417 144.983058,971.043544 C145.560049,968.680631 147.151456,966.716019 149.272718,965.637767 L149.272718,965.637767 Z M144.739126,973 C144.739126,972.928058 144.748058,972.858204 144.749951,972.786845 C147.956893,972.782379 150.723544,972.413252 153.041602,971.685 C153.235922,972.08034 153.421893,972.477961 153.599515,972.878107 C150.783398,973.75835 148.462379,975.562816 146.652379,978.278447 C145.459029,976.846019 144.739126,975.005728 144.739126,973 L144.739126,973 Z M147.930194,979.508107 C149.571019,976.934806 151.665728,975.259903 154.261748,974.485631 C155.034466,976.502184 155.602573,978.57699 155.963786,980.702136 C155.042233,981.057913 154.045388,981.260874 153.000049,981.260874 C151.088447,981.260874 149.331311,980.60233 147.930194,979.508107 L147.930194,979.508107 Z M157.585146,979.866505 C157.220049,977.906117 156.685,975.988932 155.98534,974.118981 C157.54801,973.898447 159.268883,973.955777 161.150922,974.28267 C160.786553,976.604223 159.460825,978.609709 157.585146,979.866505 L157.585146,979.866505 Z" id="Dribbble-icon" sketch:type="MSShapeGroup"></path>
            </g>
        </g>
    </g>
</svg>