<?xml version="1.0" encoding="utf-8"?>
<!-- Generator: Adobe Illustrator 16.0.0, SVG Export Plug-In . SVG Version: 6.00 Build 0)  -->
<!DOCTYPE svg PUBLIC "-//W3C//DTD SVG 1.1//EN" "http://www.w3.org/Graphics/SVG/1.1/DTD/svg11.dtd">
<svg version="1.1" id="Layer_1" xmlns:sketch="http://www.bohemiancoding.com/sketch/ns"
	 xmlns="http://www.w3.org/2000/svg" xmlns:xlink="http://www.w3.org/1999/xlink" x="0px" y="0px" width="20px" height="20px"
	 viewBox="0 0 20 20" enable-background="new 0 0 20 20" xml:space="preserve">
<path fill="#4A4A4A" d="M9.976,0C4.464,0,0,4.467,0,9.976c0,4.407,2.858,8.145,6.821,9.463c0.499,0.096,0.682-0.213,0.682-0.479
	c0-0.236-0.008-0.865-0.012-1.697c-2.775,0.602-3.361-1.336-3.361-1.336c-0.454-1.154-1.109-1.461-1.109-1.461
	c-0.904-0.617,0.07-0.605,0.07-0.605c1.001,0.07,1.527,1.027,1.527,1.027c0.89,1.525,2.335,1.086,2.906,0.83
	c0.09-0.646,0.347-1.086,0.632-1.336c-2.216-0.248-4.544-1.105-4.544-4.928c0-1.088,0.387-1.979,1.026-2.677
	C4.534,6.525,4.191,5.512,4.733,4.137c0,0,0.838-0.268,2.744,1.022c0.796-0.222,1.649-0.332,2.497-0.336
	c0.848,0.005,1.703,0.115,2.499,0.336c1.903-1.291,2.74-1.022,2.74-1.022c0.546,1.375,0.204,2.388,0.1,2.641
	c0.641,0.697,1.027,1.588,1.027,2.677c0,3.833-2.333,4.676-4.556,4.92c0.357,0.309,0.677,0.918,0.677,1.848
	c0,1.334-0.012,2.408-0.012,2.736c0,0.268,0.179,0.578,0.685,0.48c3.962-1.322,6.817-5.057,6.817-9.463
	C19.951,4.467,15.486,0,9.976,0"/>
</svg>
