<?xml version="1.0" encoding="utf-8"?>
<!-- Generator: Adobe Illustrator 16.0.0, SVG Export Plug-In . SVG Version: 6.00 Build 0)  -->
<!DOCTYPE svg PUBLIC "-//W3C//DTD SVG 1.1//EN" "http://www.w3.org/Graphics/SVG/1.1/DTD/svg11.dtd">
<svg version="1.1" id="Layer_1" xmlns:sketch="http://www.bohemiancoding.com/sketch/ns"
	 xmlns="http://www.w3.org/2000/svg" xmlns:xlink="http://www.w3.org/1999/xlink" x="0px" y="0px" width="20px" height="20px"
	 viewBox="0 0 20 20" enable-background="new 0 0 20 20" xml:space="preserve">
<title>Dribbble icon</title>
<desc>Created with Sketch.</desc>
<path fill="#4A4A4A" d="M16.937,16.939h-2.919v-4.571c0-1.092-0.022-2.495-1.52-2.495c-1.521,0-1.754,1.188-1.754,2.415v4.651H7.825
	V7.538h2.804v1.281h0.036C11.057,8.08,12.01,7.3,13.434,7.3c2.955,0,3.503,1.946,3.503,4.479v5.158V16.939z M4.53,6.25
	c-0.938,0-1.694-0.76-1.694-1.696c0-0.934,0.756-1.693,1.694-1.693c0.936,0,1.694,0.76,1.694,1.693
	C6.225,5.491,5.465,6.25,4.53,6.25z M5.993,16.939H3.067V7.538h2.926V16.939L5.993,16.939z M18.395,0.148H1.602
	c-0.803,0-1.453,0.635-1.453,1.42v16.864c0,0.784,0.65,1.42,1.453,1.42h16.791c0.804,0,1.46-0.636,1.46-1.42V1.568
	c0-0.785-0.656-1.42-1.46-1.42H18.395z"/>
</svg>
