<?xml version="1.0" encoding="UTF-8" standalone="no"?>
<svg width="25px" height="20px" viewBox="0 0 25 20" version="1.1" xmlns="http://www.w3.org/2000/svg" xmlns:xlink="http://www.w3.org/1999/xlink" xmlns:sketch="http://www.bohemiancoding.com/sketch/ns">
    <!-- Generator: Sketch 3.3.1 (12002) - http://www.bohemiancoding.com/sketch -->
    <title>Twitter icon</title>
    <desc>Created with Sketch.</desc>
    <defs></defs>
    <g id="Page-1" stroke="none" stroke-width="1" fill="none" fill-rule="evenodd" sketch:type="MSPage">
        <g id="Desktop-HD" sketch:type="MSArtboardGroup" transform="translate(-39.000000, -963.000000)" fill="#4A4A4A">
            <g id="Sidebar" sketch:type="MSLayerGroup">
                <path d="M63.6099443,965.367453 C62.7045134,965.769097 61.7314052,966.040583 60.7100925,966.162497 C61.7523714,965.537632 62.5530906,964.548216 62.930005,963.369149 C61.954388,963.947782 60.87388,964.367943 59.7237832,964.59433 C58.8028218,963.613038 57.49061,963 56.0383843,963 C52.7793587,963 50.3835926,966.041359 51.1201587,969.199496 C46.9239242,968.988997 43.2035219,966.978807 40.713318,963.924247 C39.3907127,966.193081 40.027286,969.162282 42.2758106,970.665102 C41.4482713,970.638939 40.6695338,970.411775 39.9889375,970.033486 C39.9341624,972.372745 41.6104461,974.560103 44.0385277,975.048001 C43.3279454,975.241357 42.5496261,975.285619 41.7585239,975.134435 C42.4008912,977.140265 44.2656321,978.600017 46.4750317,978.640695 C44.3523045,980.304196 41.6787805,981.047213 39,980.731525 C41.2343679,982.164038 43.8883593,983 46.7396483,983 C56.1136478,983 61.4097436,975.082348 61.0905311,967.981065 C62.077139,967.269228 62.9330514,966.379985 63.6099443,965.367453 L63.6099443,965.367453 Z" id="Twitter-icon" sketch:type="MSShapeGroup"></path>
            </g>
        </g>
    </g>
</svg>