<?xml version="1.0" encoding="UTF-8" standalone="no"?>
<svg width="18px" height="18px" viewBox="0 0 18 18" version="1.1" xmlns="http://www.w3.org/2000/svg" xmlns:xlink="http://www.w3.org/1999/xlink">
    <!-- Generator: Sketch 3.6.1 (26313) - http://www.bohemiancoding.com/sketch -->
    <title>Shape</title>
    <desc>Created with Sketch.</desc>
    <defs></defs>
    <g id="Page-1" stroke="none" stroke-width="1" fill="none" fill-rule="evenodd">
        <path d="M9,1.5 C13.1355,1.5 16.5,4.8645 16.5,9 C16.5,13.1355 13.1355,16.5 9,16.5 C4.8645,16.5 1.5,13.1355 1.5,9 C1.5,4.8645 4.8645,1.5 9,1.5 L9,1.5 Z M9,0 C4.02975,0 0,4.02975 0,9 C0,13.97025 4.02975,18 9,18 C13.97025,18 18,13.97025 18,9 C18,4.02975 13.97025,0 9,0 L9,0 Z M10.5,9 L7.125,12.375 L8.27025,13.5 L12.75,9 L8.27025,4.5 L7.125,5.625 L10.5,9 L10.5,9 Z" id="Shape" fill="#FFFFFF"></path>
    </g>
</svg>