<?xml version="1.0" encoding="UTF-8" standalone="no"?>
<svg width="17px" height="16px" viewBox="0 0 17 16" version="1.1" xmlns="http://www.w3.org/2000/svg" xmlns:xlink="http://www.w3.org/1999/xlink">
    <!-- Generator: Sketch 3.6.1 (26313) - http://www.bohemiancoding.com/sketch -->
    <title>Shape</title>
    <desc>Created with Sketch.</desc>
    <defs></defs>
    <g id="Page-1" stroke="none" stroke-width="1" fill="none" fill-rule="evenodd">
        <path d="M15.5556861,1.44137299 C14.6196151,0.50494784 13.3594787,-0.0132026846 12.0285083,0.000255770624 C10.6918712,0.00698499822 9.43598487,0.530448071 8.4928305,1.47395661 L4.13654106,5.83024606 L1.11795122,8.84812755 C-0.349374562,10.3158075 -0.375583132,12.6774122 1.05880486,14.1118002 C1.76572792,14.8187233 2.69719469,15.170414 3.63609903,15.170414 C4.60298278,15.170414 5.57765827,14.7967647 6.32176918,14.0526538 L11.8280482,8.54708316 C11.8287565,8.54637482 11.8287565,8.54566648 11.8294649,8.54531231 L13.7271071,6.64767013 C14.2208199,6.15431149 14.4977807,5.50015974 14.506635,4.80598678 C14.5158434,4.10650128 14.2530493,3.45376621 13.7664199,2.9671368 C12.7627025,1.96306521 11.1115625,1.98006536 10.0851783,3.00538715 L3.43138884,9.65953073 C3.2319912,9.85892837 3.2319912,10.1815771 3.43138884,10.3806206 C3.53091057,10.4797882 3.66124509,10.5297261 3.79193377,10.5297261 C3.92262245,10.5297261 4.05295697,10.4797882 4.1524787,10.3806206 L10.8062681,3.72647701 C11.4342113,3.09817965 12.4386371,3.08047116 13.0453301,3.68751832 C13.3357494,3.97793762 13.4926466,4.37035784 13.4869799,4.79217416 C13.480959,5.21894886 13.3109575,5.62164 13.0063714,5.92587192 L11.0407286,7.89186889 C11.0400202,7.89257723 11.0400202,7.89328557 11.0393119,7.89363974 L5.60067931,13.331564 C4.5310863,14.401157 2.81690411,14.4273656 1.77954055,13.3907103 C0.742531158,12.3533468 0.768739729,10.6388104 1.83868692,9.56886324 L2.17798166,9.2295685 C2.17833583,9.22886017 2.17939834,9.22886017 2.17975251,9.22815183 L9.21392036,2.19469231 C9.965823,1.4424355 10.9674154,1.02486921 12.0334667,1.01991084 C13.095268,1.02699423 14.0926104,1.42012279 14.8349504,2.16246285 C16.3755894,3.70345597 16.3610684,6.22549964 14.8020126,7.78420125 L9.01664774,13.5688578 C8.8172501,13.7679013 8.8172501,14.09055 9.01664774,14.2895935 C9.11616948,14.3891152 9.24685816,14.4390532 9.37719267,14.4390532 C9.50788136,14.4390532 9.63821587,14.3891152 9.73773761,14.2895935 L15.5231025,8.50458277 C17.4795369,6.54850256 17.4940578,3.3797447 15.5556861,1.44137299 L15.5556861,1.44137299 Z" id="Shape" fill="#D2D2D2"></path>
    </g>
</svg>