<?xml version="1.0" encoding="utf-8"?>
<!-- Generator: Adobe Illustrator 15.0.0, SVG Export Plug-In . SVG Version: 6.00 Build 0)  -->
<!DOCTYPE svg PUBLIC "-//W3C//DTD SVG 1.1//EN" "http://www.w3.org/Graphics/SVG/1.1/DTD/svg11.dtd">
<svg version="1.1" id="Layer_1" xmlns="http://www.w3.org/2000/svg" xmlns:xlink="http://www.w3.org/1999/xlink" x="0px" y="0px"
	 width="146.482px" height="49.161px" viewBox="0 0 146.482 49.161" enable-background="new 0 0 146.482 49.161"
	 xml:space="preserve">
<g>
	<path fill="#3575C0" d="M0,41.287l8.271-7.807c2.25,2.711,4.367,4.3,7.212,4.3c3.243,0,5.293-2.184,5.293-6.484V1.985h12.77v29.377
		c0,5.822-1.456,9.925-4.565,13.034c-3.044,3.045-7.411,4.699-12.704,4.699C8.205,49.096,3.242,45.721,0,41.287z"/>
	<path fill="#3575C0" d="M34.934,38.045v-0.132c0-7.411,5.624-11.249,14.027-11.249c3.308,0,6.55,0.663,8.601,1.39v-0.596
		c0-3.705-2.315-5.822-7.146-5.822c-3.771,0-6.683,0.728-9.859,1.985l-2.58-8.866c4.036-1.654,8.337-2.779,14.49-2.779
		c6.418,0,10.785,1.522,13.63,4.367c2.713,2.646,3.837,6.352,3.837,11.38v20.578H57.496v-3.705c-2.448,2.713-5.822,4.5-10.521,4.5
		C40.16,49.096,34.934,45.191,34.934,38.045z M57.694,35.332v-1.654c-1.257-0.529-3.043-0.926-4.896-0.926
		c-3.639,0-5.756,1.786-5.756,4.433v0.133c0,2.448,1.853,3.903,4.434,3.903C55.114,41.221,57.694,38.906,57.694,35.332z"/>
	<path fill="#3575C0" d="M72.381,30.568v-0.132c0-10.124,7.873-18.659,19.188-18.659c7.345,0,12.241,3.176,15.285,8.006
		l-8.536,6.351c-1.72-2.382-3.639-3.771-6.683-3.771c-4.035,0-7.014,3.572-7.014,7.94v0.133c0,4.631,2.911,8.138,7.146,8.138
		c2.977,0,4.896-1.39,6.881-3.705l8.402,6.088c-3.308,4.896-8.072,8.205-15.945,8.205C80.321,49.162,72.381,40.693,72.381,30.568z"
		/>
	<path fill="#3575C0" d="M109.629,0H122.2v24.481l9.727-11.976h14.226l-12.439,14.358l12.77,21.438h-13.828l-7.212-12.175
		l-3.242,3.772v8.402h-12.571V0z"/>
</g>
</svg>
