<?xml version="1.0" encoding="utf-8"?>
<!-- Generator: Adobe Illustrator 15.0.0, SVG Export Plug-In . SVG Version: 6.00 Build 0)  -->
<!DOCTYPE svg PUBLIC "-//W3C//DTD SVG 1.1//EN" "http://www.w3.org/Graphics/SVG/1.1/DTD/svg11.dtd">
<svg version="1.1" id="Layer_1" xmlns="http://www.w3.org/2000/svg" xmlns:xlink="http://www.w3.org/1999/xlink" x="0px" y="0px"
	 width="20px" height="20px" viewBox="0 0 20 20" enable-background="new 0 0 20 20" xml:space="preserve">
<path id="check-mark-4-icon" fill="#FFFFFF" d="M20,10c0,5.522-4.478,10-10,10C4.477,20,0,15.522,0,10C0,4.477,4.477,0,10,0
	C15.522,0,20,4.477,20,10z M18.059,10c0-4.455-3.604-8.058-8.059-8.058c-4.455,0-8.058,3.604-8.058,8.058
	c0,4.454,3.604,8.059,8.058,8.059C14.454,18.059,18.059,14.453,18.059,10z M13.991,5.71l-5.636,5.636L5.913,8.905l-1.81,1.811
	l4.252,4.253l7.449-7.448L13.991,5.71z"/>
</svg>
